<svg width="204" height="81" viewBox="0 0 204 81" fill="none" xmlns="http://www.w3.org/2000/svg">
<path d="M94.1798 7.5H103.93L101.13 20.6H111.73L114.53 7.5H124.28L116.73 43H106.98L109.93 29.1H99.3298L96.3798 43H86.6298L94.1798 7.5ZM134.522 43.5C131.755 43.5 129.505 43 127.772 42C126.072 40.9667 124.822 39.6 124.022 37.9C123.255 36.2 122.872 34.3333 122.872 32.3C122.872 30.2 123.255 28.1833 124.022 26.25C124.789 24.3167 125.889 22.6 127.322 21.1C128.755 19.5667 130.489 18.3667 132.522 17.5C134.589 16.6333 136.922 16.2 139.522 16.2C142.322 16.2 144.572 16.7 146.272 17.7C147.972 18.7 149.205 20.05 149.972 21.75C150.772 23.4167 151.172 25.2833 151.172 27.35C151.172 29.45 150.789 31.4667 150.022 33.4C149.255 35.3333 148.155 37.0667 146.722 38.6C145.289 40.1 143.539 41.3 141.472 42.2C139.439 43.0667 137.122 43.5 134.522 43.5ZM135.872 35.5C136.839 35.5 137.722 35.2 138.522 34.6C139.355 33.9667 140.022 33.1167 140.522 32.05C141.022 30.95 141.272 29.7333 141.272 28.4C141.272 27.0667 141.005 26.0333 140.472 25.3C139.939 24.5667 139.172 24.2 138.172 24.2C137.239 24.2 136.355 24.5167 135.522 25.15C134.689 25.75 134.022 26.5833 133.522 27.65C133.022 28.7167 132.772 29.9333 132.772 31.3C132.772 32.6333 133.039 33.6667 133.572 34.4C134.105 35.1333 134.872 35.5 135.872 35.5ZM158.907 43.5C156.84 43.5 155.257 43.05 154.157 42.15C153.09 41.2167 152.557 39.8833 152.557 38.15C152.557 37.7833 152.574 37.4167 152.607 37.05C152.64 36.6833 152.707 36.3 152.807 35.9L159.057 6.5H168.557L163.007 32.55C162.907 32.95 162.857 33.3167 162.857 33.65C162.857 34.9167 163.457 35.55 164.657 35.55C165.457 35.55 166.324 35.3 167.257 34.8L166.957 41.8C165.757 42.3333 164.424 42.75 162.957 43.05C161.49 43.35 160.14 43.5 158.907 43.5ZM179.193 43.5C177.26 43.5 175.593 43.05 174.193 42.15C172.827 41.25 171.76 40 170.993 38.4C170.26 36.8 169.893 34.9667 169.893 32.9C169.893 30.6333 170.26 28.5 170.993 26.5C171.76 24.4667 172.81 22.6833 174.143 21.15C175.477 19.6167 176.993 18.4167 178.693 17.55C180.393 16.65 182.193 16.2 184.093 16.2C185.66 16.2 187.027 16.6 188.193 17.4C189.36 18.1667 190.143 19.2333 190.543 20.6L193.543 6.5H203.093L197.543 32.5C197.443 33 197.393 33.4 197.393 33.7C197.393 34.5333 197.843 34.9667 198.743 35L197.043 43C196.177 43.1667 195.393 43.2833 194.693 43.35C194.027 43.45 193.46 43.5 192.993 43.5C191.56 43.5 190.377 43.2333 189.443 42.7C188.543 42.1667 188.093 41.2333 188.093 39.9C188.093 39.7333 188.093 39.5667 188.093 39.4C188.127 39.2333 188.16 39.0667 188.193 38.9C186.993 40.5 185.593 41.6667 183.993 42.4C182.427 43.1333 180.827 43.5 179.193 43.5ZM183.493 35.5C184.293 35.5 185.043 35.2833 185.743 34.85C186.443 34.3833 187.21 33.7 188.043 32.8L189.043 28.1C188.877 26.9333 188.46 26 187.793 25.3C187.16 24.5667 186.393 24.2 185.493 24.2C184.56 24.2 183.66 24.5333 182.793 25.2C181.96 25.8667 181.26 26.75 180.693 27.85C180.16 28.9167 179.893 30.0833 179.893 31.35C179.893 32.5833 180.21 33.5833 180.843 34.35C181.477 35.1167 182.36 35.5 183.493 35.5Z" fill="#E4E4E4"/>
<path d="M95.4063 71.18C94.1063 71.18 92.9563 70.93 91.9563 70.43C90.9763 69.93 90.1463 69.25 89.4663 68.39C88.7863 67.53 88.2663 66.56 87.9063 65.48C87.5663 64.4 87.3962 63.29 87.3962 62.15C87.3962 60.65 87.7063 59.16 88.3263 57.68C88.9463 56.2 89.8163 54.85 90.9363 53.63C92.0763 52.41 93.4063 51.43 94.9263 50.69C96.4663 49.95 98.1563 49.58 99.9963 49.58C101.956 49.58 103.546 50.01 104.766 50.87C106.006 51.73 106.826 52.85 107.226 54.23L102.936 56.84C102.796 56.08 102.516 55.49 102.096 55.07C101.696 54.65 101.226 54.36 100.686 54.2C100.146 54.04 99.5963 53.96 99.0363 53.96C97.9363 53.96 96.9763 54.2 96.1563 54.68C95.3363 55.16 94.6463 55.79 94.0863 56.57C93.5263 57.35 93.1063 58.2 92.8263 59.12C92.5463 60.02 92.4063 60.9 92.4063 61.76C92.4063 62.68 92.5563 63.52 92.8563 64.28C93.1563 65.04 93.5963 65.65 94.1763 66.11C94.7763 66.57 95.5263 66.8 96.4263 66.8C97.2463 66.8 98.1263 66.58 99.0663 66.14C100.006 65.68 100.776 64.92 101.376 63.86L104.916 66.23C104.256 67.31 103.396 68.22 102.336 68.96C101.276 69.68 100.136 70.23 98.9163 70.61C97.6963 70.99 96.5263 71.18 95.4063 71.18ZM109.3 55.25H113.71L113.02 58.43C113.78 57.37 114.62 56.54 115.54 55.94C116.48 55.34 117.4 55.04 118.3 55.04C118.66 55.04 118.89 55.05 118.99 55.07L118.09 59.36C117.01 59.38 115.99 59.57 115.03 59.93C114.07 60.29 113.31 60.83 112.75 61.55L110.74 71H105.94L109.3 55.25ZM122.338 49.1H127.138L126.208 53.45H121.408L122.338 49.1ZM121.048 55.25H125.848L122.488 71H117.688L121.048 55.25ZM129.046 55.25H133.246L132.676 57.8C133.416 56.9 134.246 56.2 135.166 55.7C136.106 55.2 137.136 54.95 138.256 54.95C139.396 54.95 140.366 55.24 141.166 55.82C141.986 56.38 142.616 57.15 143.056 58.13C143.496 59.09 143.716 60.17 143.716 61.37C143.716 62.69 143.486 63.95 143.026 65.15C142.586 66.33 141.966 67.39 141.166 68.33C140.386 69.25 139.486 69.98 138.466 70.52C137.446 71.04 136.386 71.3 135.286 71.3C134.186 71.3 133.266 71.05 132.526 70.55C131.806 70.03 131.316 69.33 131.056 68.45L129.136 77.39H124.336L129.046 55.25ZM134.506 67.25C135.226 67.25 135.906 67.01 136.546 66.53C137.186 66.03 137.706 65.39 138.106 64.61C138.506 63.83 138.706 63.01 138.706 62.15C138.706 61.25 138.466 60.51 137.986 59.93C137.506 59.33 136.846 59.03 136.006 59.03C135.426 59.03 134.826 59.23 134.206 59.63C133.586 60.01 133.046 60.53 132.586 61.19L131.896 64.43C132.016 65.23 132.316 65.9 132.796 66.44C133.276 66.98 133.846 67.25 134.506 67.25ZM145.677 68.33C145.677 68.13 145.687 67.93 145.707 67.73C145.727 67.53 145.757 67.32 145.797 67.1L147.537 58.88H145.647L146.457 55.25H148.317L149.397 50.24H154.197L153.117 55.25H156.147L155.367 58.88H152.337L150.957 65.45C150.937 65.53 150.917 65.62 150.897 65.72C150.897 65.8 150.897 65.88 150.897 65.96C150.897 66.3 150.987 66.55 151.167 66.71C151.367 66.85 151.617 66.92 151.917 66.92C152.237 66.92 152.587 66.86 152.967 66.74C153.347 66.62 153.707 66.49 154.047 66.35L154.107 70.16C153.387 70.48 152.587 70.75 151.707 70.97C150.847 71.19 150.007 71.3 149.187 71.3C148.187 71.3 147.347 71.08 146.667 70.64C146.007 70.18 145.677 69.41 145.677 68.33ZM162.979 71.3C161.379 71.3 160.079 71 159.079 70.4C158.099 69.8 157.369 68.99 156.889 67.97C156.429 66.95 156.199 65.83 156.199 64.61C156.199 63.33 156.429 62.11 156.889 60.95C157.369 59.79 158.039 58.76 158.899 57.86C159.759 56.96 160.789 56.25 161.989 55.73C163.189 55.21 164.519 54.95 165.979 54.95C167.579 54.95 168.869 55.26 169.849 55.88C170.849 56.48 171.579 57.29 172.039 58.31C172.519 59.31 172.759 60.42 172.759 61.64C172.759 62.92 172.529 64.14 172.069 65.3C171.609 66.46 170.939 67.49 170.059 68.39C169.199 69.29 168.169 70 166.969 70.52C165.769 71.04 164.439 71.3 162.979 71.3ZM163.669 67.25C164.389 67.25 165.059 67.03 165.679 66.59C166.299 66.15 166.799 65.55 167.179 64.79C167.559 64.03 167.749 63.17 167.749 62.21C167.749 61.23 167.539 60.46 167.119 59.9C166.699 59.32 166.089 59.03 165.289 59.03C164.589 59.03 163.929 59.25 163.309 59.69C162.689 60.13 162.179 60.73 161.779 61.49C161.399 62.25 161.209 63.12 161.209 64.1C161.209 65.06 161.419 65.83 161.839 66.41C162.259 66.97 162.869 67.25 163.669 67.25Z" fill="#E4E4E4"/>
<circle cx="40.5" cy="40.5" r="39.5" fill="#ABABAB"/>
<circle cx="40.5" cy="40.5" r="39.5" fill="url(#paint0_linear)"/>
<circle cx="40.5" cy="40.5" r="39.5" stroke="black" stroke-width="2"/>
<path d="M43.8284 10.1716C42.2663 8.60948 39.7337 8.60948 38.1716 10.1716L12.7157 35.6274C11.1536 37.1895 11.1536 39.7222 12.7157 41.2843C14.2778 42.8464 16.8105 42.8464 18.3726 41.2843L41 18.6569L63.6274 41.2843C65.1895 42.8464 67.7222 42.8464 69.2843 41.2843C70.8464 39.7222 70.8464 37.1895 69.2843 35.6274L43.8284 10.1716ZM45 79L45 68.7974L37 68.7974L37 79L45 79ZM45 68.7974L45 13L37 13L37 68.7974L45 68.7974Z" fill="black"/>
<defs>
<linearGradient id="paint0_linear" x1="48.5" y1="6.27321e-08" x2="32.5" y2="81" gradientUnits="userSpaceOnUse">
<stop stop-color="white"/>
<stop offset="1" stop-color="white" stop-opacity="0"/>
</linearGradient>
</defs>
</svg>
